<svg width="790" height="541" xmlns="http://www.w3.org/2000/svg" xmlns:xlink="http://www.w3.org/1999/xlink" overflow="hidden"><defs><clipPath id="clip0"><path d="M203 56 993 56 993 597 203 597Z" fill-rule="evenodd" clip-rule="evenodd"/></clipPath></defs><g clip-path="url(#clip0)" transform="translate(-203 -56)"><path d="M226.933 347.678C250.796 360.341 276.239 370.788 302.943 376.873 325.001 381.896 315.548 376.653 329.653 374.036 341.407 371.85 352.081 367.279 364.736 365.755 402.48 361.233 442.685 367.69 480.899 365.995 503.818 364.983 513.211 356.571 531.548 348.33 553.996 338.224 581.557 343.547 605.135 336.509 634.666 327.687 660.336 320.378 690.927 316.237 720.248 312.267 748.849 302.762 778.2 300.336 804.539 298.161 830.999 307.254 857.619 307.254 884.799 307.254 907.678 302.943 935.038 306.372 948.473 308.046 964.019 308.307 977.083 306.783 982.486 306.151 989.778 323.817 991.059 327.055 998.461 345.723 982.476 372.131 980.095 390.168 977.034 413.277 977.974 436.407 976.673 459.606 975.423 481.874 976.533 499.359 979.204 521.125 981.165 537.066 983.256 553.257 987.517 568.757 991.839 584.448 992.209 584.147 975.433 590.503 945.582 601.812 899.505 592.749 868.173 592.749 821.426 592.749 774.638 594.163 727.961 594.163 690.357 594.163 652.773 596.058 615.159 596.058 584.308 596.058 553.516 597 522.645 597 482.33 597 441.815 590.624 401.29 590.624 368.247 590.624 335.465 592.157 302.463 592.157 280.982 592.157 257.702 593.19 236.367 590.563 218.276 588.338 215.275 593.381 210.187 574.953 205.387 557.578 216.376 522.418 221.273 505.695 228.223 481.954 210.813 456.258 209.951 431.715 209.337 414.219 211.586 397.105 214.786 380.001 216.296 371.931 218.297 363.94 219.857 355.829 220.696 351.468 223.272 350.255 226.933 347.678Z" fill="#E3B88F" fill-rule="evenodd"/><path d="M802.179 57.0231C795.94 56.0669 787.924 64.0414 786.261 70.4738L771.809 126.367C770.146 132.8 773.584 142.535 779.823 143.491L811.278 148.313 762.841 335.651 729.602 330.556C716.053 328.479 702.225 338.071 698.613 352.039L684.516 406.562C680.905 420.53 688.916 433.438 702.464 435.514L798.595 450.249C812.143 452.325 825.974 442.765 829.585 428.797L843.682 374.275C847.294 360.306 839.281 347.367 825.732 345.29L791.953 340.113 840.39 152.775 873.774 157.892C880.013 158.848 886.643 150.656 888.306 144.223L902.757 88.3299C904.42 81.8973 902.37 72.3798 896.131 71.4235L802.179 57.0231ZM812.171 79.6795 873.915 89.1432C881.986 90.3804 882.781 92.4247 880.63 100.742L874.304 123.66C872.153 131.978 870.996 132.576 862.935 131.34L803.969 122.572C795.907 121.336 794.477 121.671 796.627 113.354L803.488 89.7285C805.638 81.4121 804.1 78.4424 812.171 79.6795Z" fill="#2A7FFF" fill-rule="evenodd" fill-opacity="0.988235"/><path d="M686.461 394.455C689.717 394.571 693.859 395.23 697.277 396.277 703.425 398.161 708.239 400.662 713.408 404.123 718.585 407.596 722.721 408.587 726.867 413.41 731.469 418.762 740.599 416.285 746.8 417.844 751.218 418.951 754.688 422.224 758.63 424.32 765.427 427.938 769.348 429.458 777.734 429.635 786.122 429.803 793.858 432.546 802.217 432.948 809.035 433.28 814.969 436.349 821.581 437.367 824.993 437.892 829.89 437.845 830.876 440.339 831.531 441.971 828.031 442.92 826.639 444.268 824.054 446.774 821.807 448.635 818.694 450.384 815.532 452.166 812.358 453.093 809.097 454.559 805.267 456.28 800.194 455.728 796.37 455.514 790.541 455.199 784.832 454.695 779.119 453.815 773.435 452.94 767.723 451.55 762.129 450.365 756.464 449.181 750.666 448.475 744.934 447.592 739.076 446.69 733.188 445.825 727.33 444.923 720.196 443.824 713.151 442.146 705.904 441.488 700.364 440.988 694.776 440.169 689.389 439.079 685.491 438.292 683.252 436.958 681.248 433.651 679.309 430.448 679.663 426.182 679.727 422.381 679.772 419.119 680.107 415.162 680.787 411.894 681.621 407.91 682.537 404.157 683.775 400.205 684.254 398.654 684.813 397.106 685.422 395.638 685.626 395.159 686.118 394.85 686.461 394.455Z" fill="#E3B88F" fill-rule="evenodd"/><path d="M842 152.523C842.637 150.101 843.154 148.137 843.154 148.137 843.154 148.137 842.637 150.101 842 152.523L794.199 334.228 786.308 331.705C785.67 334.127 785.154 336.091 785.154 336.091 785.154 336.091 785.67 334.127 786.308 331.705L834.108 150Z" fill="#0044AA" fill-rule="evenodd" fill-opacity="0.988235"/><path d="M820 149.523C820.637 147.101 821.154 145.137 821.154 145.137 821.154 145.137 820.637 147.101 820 149.523L772.199 331.228 764.308 328.705C763.67 331.127 763.154 333.091 763.154 333.091 763.154 333.091 763.67 331.127 764.308 328.705L812.108 147Z" fill="#80B3FF" fill-rule="evenodd" fill-opacity="0.988235"/><path d="M898.984 81.232C896.42 80.5245 896.124 81.4059 895.029 84.2807 892.968 89.6606 892.15 96.1971 890.227 101.873 888.422 107.225 887.742 112.8 886.006 118.206 884.547 122.757 883.709 127.536 883.038 132.227 882.575 135.456 880.957 139.192 880.06 142.412 879.577 144.111 879.449 145.82 878.985 147.51 878.689 148.573 878.216 149.159 878.009 150.252 877.841 151.137 880.09 150.978 880.435 150.998 882.427 151.117 883.285 146.804 883.738 145.542 884.655 142.978 886.036 140.584 887.022 138.06 888.639 133.926 890.148 129.832 891.104 125.479 891.962 121.554 892.317 117.758 893.589 113.913 894.654 110.703 895.71 107.533 896.518 104.26 897.376 100.806 898.54 97.624 899.141 94.0895 899.575 91.6111 900.423 89.2471 900.818 86.748 901.064 85.17 901.005 84.4337 900.62 82.8369 900.315 81.5549 902.465 83.8822 898.984 81.232Z" fill="#0055D4" fill-rule="evenodd"/><path d="M802.607 70.0731C799.963 69.7664 799.717 70.4409 798.785 72.6494 797.039 76.7819 796.599 81.666 795 86.0059 793.501 90.1003 793.161 94.2584 791.735 98.3828 790.527 101.862 789.98 105.451 789.586 108.954 789.314 111.378 787.906 114.258 787.185 116.712 786.81 118.003 786.774 119.273 786.408 120.556 786.173 121.356 785.731 121.835 785.588 122.657 785.472 123.323 787.745 123.017 788.085 123.004 790.105 122.926 790.711 119.678 791.093 118.711 791.874 116.745 793.124 114.867 793.967 112.926 795.341 109.747 796.627 106.605 797.32 103.321 797.958 100.358 798.086 97.5286 799.139 94.5895 800.011 92.1436 800.885 89.7202 801.503 87.2398 802.16 84.6244 803.143 82.184 803.547 79.5305 803.825 77.6699 804.538 75.8581 804.785 73.9845 804.949 72.801 804.834 72.2636 804.348 71.1196 803.962 70.201 806.276 71.7359 802.607 70.0731Z" fill="#0055D4" fill-rule="evenodd"/><path d="M794.9 63.2319C792.215 62.5244 791.917 63.4067 790.765 66.2814 788.625 71.66 787.761 78.1972 785.765 83.8718 783.872 89.2266 783.173 94.796 781.362 100.198 779.83 104.752 778.966 109.538 778.266 114.218 777.782 117.457 776.095 121.183 775.149 124.413 774.655 126.112 774.521 127.821 774.028 129.5 773.729 130.563 773.236 131.159 773.009 132.252 772.834 133.137 775.19 132.978 775.55 132.998 777.618 133.117 778.523 128.794 778.996 127.543 779.953 124.979 781.393 122.584 782.422 120.06 784.099 115.917 785.683 111.823 786.681 107.481 787.576 103.551 787.946 99.7533 789.273 95.9069 790.374 92.7053 791.474 89.5346 792.328 86.2586 793.223 82.8047 794.427 79.623 795.065 76.0896 795.507 73.6115 796.392 71.2466 796.813 68.7485 797.071 67.1707 796.999 66.4334 796.608 64.8366 796.278 63.5548 798.531 65.8819 794.9 63.2319Z" fill="#80B3FF" fill-rule="evenodd"/><path d="M889.259 86.3791C886.615 86.0723 886.37 86.7469 885.438 88.9554 883.691 93.0878 883.251 97.9719 881.652 102.312 880.153 106.406 879.814 110.564 878.388 114.689 877.179 118.168 876.632 121.757 876.238 125.26 875.967 127.684 874.558 130.564 873.838 133.018 873.462 134.309 873.427 135.579 873.061 136.862 872.826 137.662 872.383 138.141 872.24 138.963 872.125 139.629 874.397 139.323 874.737 139.31 876.758 139.232 877.363 135.984 877.745 135.017 878.526 133.051 879.776 131.173 880.62 129.232 881.993 126.053 883.279 122.911 883.972 119.627 884.611 116.664 884.739 113.835 885.791 110.895 886.663 108.449 887.537 106.026 888.155 103.546 888.813 100.93 889.796 98.49 890.199 95.8364 890.477 93.9758 891.191 92.1641 891.438 90.2906 891.601 89.1069 891.487 88.5696 891.001 87.4255 890.614 86.5069 892.928 88.0419 889.259 86.3791Z" fill="#000000" fill-rule="evenodd" fill-opacity="0"/><path d="M734 344C746.144 344.673 761.414 348.219 774.607 350.309 790.11 352.76 806.671 355.463 821.791 359.823 824.736 360.677 825.533 359.431 827.116 362.274 828.992 365.63 827.419 375.003 826.632 378.65 825.069 385.863 824.998 393.277 823.354 400.521 822.123 405.905 820.288 411.23 817.464 416.012 814.992 420.181 811.452 419.247 807.135 417.64 799.944 414.967 793.236 409.462 786.519 405.705 780.82 402.52 774.809 398.491 769.655 394.503 762.625 389.038 755.675 382.809 749.472 376.379 744.873 371.617 740.001 364.093 736.895 358.266 734.646 354.046 734.565 351.615 734.847 346.833 734.908 345.849 734.282 344.944 734 344Z" fill="#AACCFF" fill-rule="evenodd"/><path d="M555.486 414.244 555.486 414.244C555.486 421.813 571.095 411.226 578.443 413.373 588.906 416.421 593.391 418.865 598.387 428.245 604.775 440.237 616.449 442.117 629.134 445.501 639.276 448.213 626.711 453.328 622.697 454.021 611.914 455.871 600.52 454.031 589.537 454.951 573.397 456.307 569.933 429.274 566.159 419.963 564.276 415.283 552.843 413.333 549.409 412.146 547.376 411.444 553.484 413.462 555.486 414.244Z" fill="#D38D5F" fill-rule="evenodd"/><path d="M760.722 423.274 767.187 423.029C776.975 422.672 788.608 425.722 798.126 428.018 807.464 430.283 811.944 435.354 818.649 441.792 824.196 447.128 841.376 448.046 825.293 446.128 809.839 444.271 794.424 445.506 778.362 442.812 767.796 441.047 760.164 442.975 752.252 448.954 750.845 450.005 755.764 432.64 756.422 430.609 757.31 427.906 759.286 425.712 760.722 423.274" fill="#D38D5F" fill-rule="evenodd"/><path d="M904.151 477.812C911.21 475.326 913.361 489.758 919.151 494.493 931.019 504.19 936.6 498.732 930.513 507.558 928.778 510.064 888.159 501.139 883.043 500.149 860.746 495.85 885.998 484.617 891.649 483.25 895.416 482.339 914.868 471.879 904.151 477.812Z" fill="#D38D5F" fill-rule="evenodd"/><path d="M613.812 498.116C626.511 490.915 650.386 487.256 669.016 485.912 671.066 485.765 673.117 485.637 675.167 485.51 696.046 484.136 675.445 485.029 659.333 494.643 646.823 502.109 614.747 499.509 608.647 490.425 608.508 490.199 608.219 490.111 608 489.964" fill="#D38D5F" fill-rule="evenodd"/><path d="M242.623 467.998C240.089 464.152 282.948 462.343 290.743 462.763 303.15 463.422 297.102 459.886 291.33 464.112 283.853 469.587 274.026 469.937 266.771 475.482 263.959 477.629 251.847 472.474 247.957 471.475 246.333 471.056 227.999 464.132 242.623 467.998Z" fill="#D38D5F" fill-rule="evenodd"/><path d="M468.174 563.947C463.714 562.806 500.471 556.198 530.768 561.885 543.497 564.277 599.052 575.28 565.245 547.077 564.056 546.086 538.668 554.936 533.478 554.446 517.55 552.954 493.052 548.85 478.843 554.446 474.004 556.358 455.945 569.633 468.174 563.947Z" fill="#D38D5F" fill-rule="evenodd"/><path d="M573.906 425.001C565.049 424.83 554.874 443.818 545.221 451.627 538.048 457.433 550.451 447.602 551.518 446.405 555.498 441.937 560.626 454.213 565.473 457.735 568.233 459.748 583.628 449.665 589.109 448.719 589.724 448.618 590.338 448.528 590.943 448.427 595.759 447.652 582.611 438.505 581.684 437.751 575.447 432.689 569.674 432.005 573.906 425.001Z" fill="#D38D5F" fill-rule="evenodd"/><path d="M303 455.326 450.262 556 458 346.806 306.875 250 303 455.326Z" stroke="#000000" stroke-width="2" stroke-linecap="round" stroke-linejoin="round" stroke-miterlimit="10" fill="#E95151" fill-rule="evenodd"/><path d="M453.848 343.225 608 262 608 482.582 450 556 453.848 343.225Z" stroke="#000000" stroke-width="2" stroke-linecap="round" stroke-linejoin="round" stroke-miterlimit="10" fill="#E95151" fill-rule="evenodd"/><path d="M303 246.479 449.741 343 610 267.724 469.045 177 303 246.479Z" stroke="#000000" stroke-width="2" stroke-linecap="round" stroke-linejoin="round" stroke-miterlimit="10" fill="#E95151" fill-rule="evenodd"/><path d="M466 181.148 419.522 102 222 190.802 310.258 249 466 181.148Z" stroke="#000000" stroke-width="2" stroke-linecap="round" stroke-linejoin="round" stroke-miterlimit="10" fill="#E95151" fill-rule="evenodd"/><path d="M313.213 252 205 265.582 390.511 384 454 341.549 313.213 252Z" stroke="#000000" stroke-width="2" stroke-linecap="round" stroke-linejoin="round" stroke-miterlimit="10" fill="#E95151" fill-rule="evenodd"/><path d="M468 177.355 521.374 113 679 216.296 604.6 266 468 177.355Z" stroke="#000000" stroke-width="2" stroke-linecap="round" stroke-linejoin="round" stroke-miterlimit="10" fill="#E95151" fill-rule="evenodd"/><path d="M450 343.056 604.455 266 701 300.681 523.359 397 450 343.056Z" stroke="#000000" stroke-width="2" stroke-linecap="round" stroke-linejoin="round" stroke-miterlimit="10" fill="#E95151" fill-rule="evenodd"/><path d="M468.5 181.5 464.5 337.5" stroke="#000000" stroke-linecap="round" stroke-linejoin="round" stroke-miterlimit="10" fill="#E95151" fill-rule="evenodd"/><path d="M373.807 116.397C352.176 141.973 300.438 212.943 310.874 248.96 353.336 278.976 407.728 340.463 456.442 340.5 503.045 340.535 537.657 296.254 602.5 267.175 588.935 225.428 588.965 240.03 575.528 214.152 562.091 188.275 542.694 132.32 521.878 111.911 499.39 105.693 481.594 100.242 444.667 100.509 408.189 100.765 399.391 105.368 373.807 116.397Z" stroke="#000000" stroke-miterlimit="8" fill="#D38D5F" fill-rule="evenodd"/><path d="M379.196 119.003C372.624 124.192 368.882 131.284 363.129 137.164 357.781 145.348 350.272 153.068 345.988 162.002 340.212 171.489 334.003 181.734 329.782 192.002 323.192 206.065 317.865 220.348 316.323 236.05 315.949 238.732 313.71 245.863 317.541 240.444 321.903 234.867 328.152 231.59 334.011 227.873 343.808 221.496 352.38 213.54 360.847 205.585 366.346 199.731 364.977 186.046 371.234 180.941 378.555 174.415 386.596 163.148 394.261 156.973 401.566 150.522 412.016 153.725 419.454 147.407 422.495 144.39 429.519 138.016 429.081 136.284 422.591 137.697 417.32 132.168 411.263 130.776 401.663 127.124 390.652 122.927 381.851 117.511 380.731 117.521 380.142 118.598 379.196 119.003Z" fill="#F6C699" fill-rule="evenodd"/><path d="M602.704 373.88 599.717 482.231 493.789 526.358C521.859 506.572 554.93 493.786 578 467 593.235 440.96 594.47 404.92 602.704 373.88Z" fill="#DE1C1C" fill-rule="evenodd"/><path d="M549.697 186.155C555.417 198.262 567.232 207.321 566.857 222.476 584.322 240.546 585.025 249.473 593.347 262.971L544 284.952 485.186 326.715C489.552 294.509 484.776 257.73 498.285 230.095 512.375 204.782 532.56 200.802 549.697 186.155Z" fill="#CE7F4A" fill-rule="evenodd"/><path d="M529.5 117.5C546.225 180.079 563.709 191.018 578.153 216.711 591.076 240.877 590.823 262.5 607.041 262.5 642.517 245.456 646.419 232.7 678.5 216.711 636.305 188.089 578.153 146.5 529.5 117.5Z" stroke="#2F528F" stroke-miterlimit="8" fill="#DE1C1C" fill-rule="evenodd"/></g></svg>